<svg aria-hidden="true" style="position:absolute;width:0;height:0" xmlns="http://www.w3.org/2000/svg" overflow="hidden"><defs><symbol id="icon-check" viewBox="0 0 34 32"><path d="M4.269-.01h25.617c2.358 0 4.269 1.911 4.269 4.269v23.482c0 2.358-1.911 4.269-4.269 4.269H4.269C1.911 32.01 0 30.098 0 27.741V4.259C0 1.901 1.911-.01 4.269-.01z"/><path stroke-width=".4267" d="M8.447 16.537l-.147-.14-2.206 2.09.162.155 7.61 7.26 16.329-15.577-2.192-2.091-14.137 13.474-5.42-5.17z"/></symbol><symbol id="icon-check2" viewBox="0 0 34 32"><path d="M30.341 3.556v24.889H3.793V3.556h26.548zm0-3.556H3.793C1.707 0 0 1.6 0 3.556v24.889c0 1.956 1.707 3.556 3.793 3.556h26.548c2.086 0 3.793-1.6 3.793-3.556V3.556C34.134 1.6 32.427 0 30.341 0z"/></symbol></defs></svg>